<?xml version="1.0" encoding="UTF-8" standalone="no"?>
<!DOCTYPE svg PUBLIC "-//W3C//DTD SVG 1.1//EN" "http://www.w3.org/Graphics/SVG/1.1/DTD/svg11.dtd">
<svg xmlns="http://www.w3.org/2000/svg" version="1.1" viewBox="0.00 0.00 200.00 200.00">
<path fill="#000000" d="
  M 3.83 139.66
  C 14.05 130.74 21.65 119.68 26.36 106.93
  Q 30.50 95.73 33.08 80.33
  Q 34.03 74.64 40.24 74.60
  Q 49.89 74.54 59.52 74.54
  C 63.48 74.54 65.01 73.28 66.82 70.06
  Q 71.30 62.07 75.90 54.14
  C 77.19 51.92 78.67 51.25 81.34 51.25
  Q 120.90 51.25 159.38 51.25
  A 4.57 4.57 0.0 0 1 163.92 55.29
  C 164.43 59.64 164.43 63.68 165.06 68.21
  C 166.25 76.65 167.10 85.16 169.75 96.25
  C 170.37 98.85 171.39 101.44 172.19 104.10
  Q 173.16 107.31 174.33 109.72
  Q 175.65 112.43 177.01 115.13
  Q 183.85 128.72 195.07 138.90
  Q 197.10 140.73 197.54 141.89
  C 198.50 144.38 197.15 147.60 194.00 147.61
  Q 100.13 147.69 6.25 147.85
  C 1.64 147.86 0.77 142.33 3.83 139.66
  Z"
/>
</svg>
