<?xml version="1.0" encoding="UTF-8" standalone="no"?>
<!DOCTYPE svg PUBLIC "-//W3C//DTD SVG 1.1//EN" "http://www.w3.org/Graphics/SVG/1.1/DTD/svg11.dtd">
<svg xmlns="http://www.w3.org/2000/svg" version="1.1" viewBox="0.00 0.00 402.00 402.00">
<path fill="#5c413f" d="
  M 128.63 23.39
  C 201.31 -25.84 300.41 20.07 309.05 107.83
  C 309.74 114.86 311.63 123.95 303.20 126.86
  Q 301.23 127.54 297.75 127.12
  C 290.32 126.23 282.92 126.44 275.46 126.44
  C 241.09 126.45 210.56 139.21 179.54 150.57
  C 167.44 155.01 154.55 158.63 141.68 159.75
  C 138.03 160.07 134.16 160.90 130.82 161.03
  Q 124.35 161.29 117.93 160.57
  C 103.74 158.98 87.15 158.84 82.05 142.50
  C 79.91 135.62 79.42 127.84 79.19 120.11
  C 78.09 82.08 97.13 44.73 128.63 23.39
  Z"
/>
<path fill="#5c413f" d="
  M 315.87 150.22
  C 323.88 152.53 326.59 161.76 322.83 168.77
  Q 305.97 200.18 288.98 231.52
  C 283.10 242.37 276.18 252.59 270.33 263.48
  C 246.45 307.88 216.91 362.30 198.16 396.40
  Q 197.21 398.12 195.18 398.94
  Q 194.72 399.13 194.26 398.93
  Q 191.56 397.74 190.46 395.75
  Q 162.83 345.51 135.24 295.26
  C 132.26 289.82 127.84 283.28 124.57 277.32
  Q 101.99 236.16 79.60 194.90
  C 77.36 190.76 74.82 186.48 77.05 181.68
  Q 80.60 173.99 89.97 175.80
  C 100.25 177.78 110.82 179.58 121.30 180.11
  C 130.28 180.57 140.20 179.32 147.48 178.27
  Q 162.78 176.06 177.50 171.33
  Q 195.10 165.68 217.50 157.71
  C 243.25 148.54 271.55 143.28 298.95 147.36
  C 301.40 147.73 303.90 147.70 306.24 148.19
  Q 309.76 148.93 311.00 149.12
  Q 313.18 149.45 315.87 150.22
  Z"
/>
</svg>
