<?xml version="1.0" encoding="UTF-8" standalone="no"?>
<!DOCTYPE svg PUBLIC "-//W3C//DTD SVG 1.1//EN" "http://www.w3.org/Graphics/SVG/1.1/DTD/svg11.dtd">
<svg xmlns="http://www.w3.org/2000/svg" version="1.1" viewBox="0.00 0.00 1448.00 1448.00">
<path fill="#12ff80" d="
  M 220.92 289.70
  C 256.16 283.48 284.14 254.88 289.71 219.69
  Q 290.72 213.29 290.72 199.75
  Q 290.75 147.25 290.71 94.74
  Q 290.70 80.81 291.46 74.78
  C 296.12 37.50 324.98 7.35 362.31 1.52
  Q 368.83 0.50 382.25 0.50
  Q 705.49 0.48 1028.74 0.50
  Q 1042.07 0.50 1048.69 1.52
  C 1085.57 7.22 1114.73 36.69 1119.71 73.78
  Q 1120.52 79.82 1120.52 93.75
  Q 1120.54 164.87 1120.50 236.00
  Q 1120.49 249.52 1119.49 255.95
  C 1113.86 292.02 1084.71 320.94 1048.71 326.35
  Q 1042.59 327.26 1028.75 327.26
  Q 725.25 327.27 421.76 327.26
  Q 407.66 327.26 401.78 327.98
  C 364.42 332.55 334.15 361.45 328.30 398.81
  Q 327.27 405.35 327.26 418.74
  C 327.21 489.50 327.43 560.25 327.45 631.00
  Q 327.46 644.64 326.56 650.96
  C 321.33 687.73 292.38 716.95 255.69 722.68
  Q 249.10 723.71 235.75 723.72
  Q 160.12 723.77 84.50 723.72
  C 43.91 723.69 8.14 694.65 1.56 654.18
  Q 0.49 647.58 0.49 634.25
  Q 0.50 508.00 0.49 381.74
  Q 0.49 368.64 1.62 361.81
  C 7.75 324.82 37.90 295.89 75.28 291.56
  Q 80.70 290.93 95.25 290.93
  Q 148.12 290.94 200.99 290.91
  Q 214.10 290.91 220.92 289.70
  Z"
/>
<path fill="#12ff80" d="
  M 800.86 887.47
  L 650.04 887.47
  A 89.07 89.07 0.0 0 1 560.97 798.40
  L 560.97 647.55
  A 89.07 89.07 0.0 0 1 650.04 558.48
  L 800.86 558.48
  A 89.07 89.07 0.0 0 1 889.93 647.55
  L 889.93 798.40
  A 89.07 89.07 0.0 0 1 800.86 887.47
  Z"
/>
<path fill="#12ff80" d="
  M 1120.62 807.75
  C 1120.64 765.69 1152.13 729.83 1193.55 724.19
  Q 1199.56 723.38 1213.50 723.38
  Q 1283.62 723.37 1353.75 723.37
  Q 1367.75 723.37 1373.72 724.12
  C 1409.85 728.68 1439.56 756.01 1446.03 792.09
  Q 1447.27 798.99 1447.27 812.00
  Q 1447.28 938.88 1447.28 1065.76
  Q 1447.28 1079.09 1446.23 1085.69
  C 1440.40 1122.13 1411.07 1150.57 1374.70 1155.83
  Q 1368.27 1156.76 1354.75 1156.75
  Q 1295.62 1156.72 1236.50 1156.76
  Q 1229.09 1156.77 1217.27 1159.83
  C 1186.14 1167.91 1162.33 1192.11 1157.45 1224.30
  Q 1156.54 1230.28 1156.53 1244.25
  Q 1156.51 1300.00 1156.53 1355.75
  Q 1156.53 1368.95 1155.49 1375.70
  C 1149.85 1412.34 1120.99 1441.58 1083.97 1446.66
  Q 1077.88 1447.50 1064.00 1447.50
  Q 742.50 1447.50 420.99 1447.51
  Q 407.30 1447.51 401.05 1446.70
  C 358.02 1441.11 326.71 1404.93 326.81 1361.25
  Q 326.96 1287.24 326.94 1213.24
  Q 326.93 1199.85 327.88 1193.30
  C 333.35 1155.55 363.44 1125.78 401.53 1121.23
  Q 407.11 1120.56 421.49 1120.56
  Q 726.00 1120.56 1030.50 1120.56
  Q 1043.49 1120.56 1050.42 1119.35
  C 1085.93 1113.14 1113.86 1084.80 1119.49 1049.18
  Q 1120.54 1042.57 1120.54 1029.25
  Q 1120.56 918.50 1120.62 807.75
  Z"
/>
</svg>
