<?xml version="1.0" encoding="UTF-8" standalone="no"?>
<!DOCTYPE svg PUBLIC "-//W3C//DTD SVG 1.1//EN" "http://www.w3.org/Graphics/SVG/1.1/DTD/svg11.dtd">
<svg xmlns="http://www.w3.org/2000/svg" version="1.1" viewBox="0.00 0.00 2055.00 280.00">
<path fill="#64b6fa" d="
  M 375.62 231.58
  L 375.32 272.53
  A 1.29 1.29 0.0 0 1 374.06 273.81
  C 366.40 274.00 358.17 274.31 350.99 273.55
  C 336.57 272.01 322.84 267.47 312.06 257.51
  C 304.64 250.65 299.95 244.21 296.10 235.41
  C 292.09 226.26 291.56 215.59 291.58 205.50
  Q 291.73 104.88 291.72 4.39
  A 0.79 0.79 0.0 0 1 292.49 3.60
  Q 313.90 2.89 335.31 3.59
  Q 336.18 3.62 336.21 4.49
  Q 336.50 11.65 336.51 18.75
  Q 336.76 165.30 336.68 209.25
  C 336.66 220.25 342.45 228.44 354.26 228.78
  Q 363.80 229.05 373.40 229.28
  Q 375.64 229.34 375.62 231.58
  Z"
/>
<rect fill="#64b6fa" x="878.73" y="3.35" width="44.24" height="270.50" rx="1.72"/>
<path fill="#3b2c8c" d="
  M 1327.07 83.21
  C 1319.88 70.93 1308.77 66.98 1295.00 66.93
  Q 1244.00 66.71 1193.00 66.72
  C 1179.26 66.72 1172.83 72.42 1172.84 86.50
  Q 1172.85 180.18 1172.78 273.15
  Q 1172.78 274.23 1171.69 274.23
  L 1128.37 274.23
  Q 1127.73 274.23 1127.73 273.59
  Q 1127.52 180.43 1127.72 87.00
  C 1127.74 77.49 1128.53 69.24 1132.19 60.39
  C 1138.66 44.75 1147.82 34.45 1164.20 27.94
  Q 1179.02 22.05 1192.00 21.99
  Q 1243.75 21.72 1295.50 21.69
  C 1305.94 21.68 1316.17 23.27 1325.88 27.11
  C 1329.33 28.47 1333.27 29.69 1336.31 31.19
  Q 1350.06 37.96 1359.88 49.89
  Q 1362.19 52.70 1367.17 61.34
  C 1375.10 75.10 1379.40 89.24 1379.78 105.26
  C 1380.28 125.89 1380.78 147.33 1371.56 166.04
  C 1361.99 185.47 1347.83 196.92 1328.55 205.40
  C 1317.58 210.22 1305.05 212.29 1293.25 212.33
  Q 1243.41 212.52 1193.03 212.23
  A 1.44 1.44 0.0 0 1 1191.60 210.79
  L 1191.65 168.93
  A 1.73 1.72 -90.0 0 1 1193.37 167.20
  Q 1241.82 167.20 1289.75 167.29
  Q 1299.53 167.31 1310.49 163.52
  C 1321.77 159.63 1328.46 151.43 1332.34 140.74
  C 1335.44 132.18 1334.38 122.29 1334.40 112.01
  Q 1334.44 95.80 1327.07 83.21
  Z"
/>
<path fill="#64b6fa" d="
  M 219.76 139.10
  A 2.39 2.37 7.2 0 0 220.89 140.55
  Q 228.97 145.14 235.24 151.77
  Q 239.07 155.82 243.43 163.42
  C 249.07 173.26 252.40 179.99 254.51 190.21
  Q 255.90 196.94 256.33 204.90
  C 257.09 219.24 256.27 232.03 250.29 244.96
  C 248.00 249.90 244.04 253.95 240.56 258.29
  Q 238.41 260.96 235.63 262.85
  C 229.55 266.98 225.10 270.13 217.00 272.26
  C 211.05 273.82 202.79 274.00 195.31 274.00
  Q 110.66 274.04 26.00 273.99
  C 15.39 273.99 5.51 264.05 5.10 253.50
  Q 4.71 243.50 4.71 233.50
  Q 4.66 102.92 4.85 43.00
  C 4.88 36.05 9.37 29.28 15.05 25.48
  C 20.26 21.99 27.12 22.04 33.50 22.04
  Q 105.50 21.99 177.51 22.03
  Q 195.18 22.04 210.39 30.46
  Q 218.95 35.19 224.61 42.32
  C 235.64 56.23 237.09 71.59 236.00 89.25
  Q 234.44 114.60 220.36 136.32
  Q 219.41 137.78 219.76 139.10
  Z
  M 69.68 126.22
  Q 71.59 125.55 74.00 125.56
  Q 113.00 125.76 152.00 125.38
  C 173.19 125.17 189.45 111.54 190.94 89.99
  Q 191.42 83.07 191.27 77.61
  Q 191.14 73.38 190.86 72.39
  C 189.48 67.67 184.15 66.65 179.75 66.64
  Q 126.37 66.50 73.00 66.63
  Q 62.26 66.65 51.11 66.36
  A 1.29 1.29 0.0 0 0 49.81 67.40
  C 49.05 71.30 49.51 75.90 49.51 79.02
  Q 49.51 148.02 49.49 217.02
  C 49.49 220.25 49.21 223.90 49.81 227.53
  A 2.03 2.03 0.0 0 0 51.96 229.23
  Q 59.25 228.73 67.00 228.77
  Q 134.12 229.10 201.25 228.78
  C 205.51 228.76 209.68 228.33 210.63 224.27
  C 213.41 212.40 212.29 199.25 206.17 188.53
  Q 202.95 182.90 200.07 179.93
  C 192.70 172.34 179.16 170.77 169.00 170.76
  C 136.30 170.74 103.45 171.33 70.78 170.38
  A 1.89 1.88 -89.4 0 1 68.95 168.50
  L 68.91 127.30
  A 1.15 1.14 -9.7 0 1 69.68 126.22
  Z"
/>
<path fill="#64b6fa" d="
  M 993.20 170.16
  A 1.39 1.38 30.9 0 0 993.58 171.64
  C 1005.00 181.99 1016.10 192.58 1026.90 203.59
  Q 1032.60 209.39 1041.06 216.93
  Q 1049.01 224.02 1062.37 237.74
  C 1071.48 247.09 1082.16 256.33 1091.72 266.07
  C 1093.91 268.31 1096.30 270.27 1098.64 271.92
  Q 1101.07 273.63 1098.10 273.68
  C 1077.48 274.01 1057.14 274.20 1036.87 273.65
  C 1034.40 273.59 1031.47 269.80 1029.93 268.09
  C 1019.96 256.94 1007.18 246.57 994.04 233.64
  C 988.93 228.61 982.97 221.31 977.44 216.56
  C 966.20 206.93 955.77 196.35 945.28 185.93
  C 942.52 183.19 940.58 180.24 938.44 177.08
  C 935.88 173.33 936.66 166.35 937.66 162.27
  C 939.50 154.75 947.05 150.75 951.92 145.87
  Q 955.08 142.70 957.73 140.85
  C 974.51 129.15 988.92 115.27 1004.38 103.38
  C 1012.51 97.13 1020.16 90.50 1027.34 85.10
  Q 1028.93 83.89 1031.50 83.88
  Q 1063.88 83.78 1096.25 84.16
  Q 1097.68 84.17 1098.46 84.64
  Q 1099.28 85.12 1098.48 85.64
  C 1093.40 88.92 1087.80 93.93 1084.32 96.60
  C 1077.06 102.15 1069.80 107.38 1062.80 113.44
  Q 1048.09 126.16 1035.55 135.55
  Q 1027.23 141.79 1022.57 146.09
  C 1021.28 147.27 1019.14 148.51 1017.62 149.79
  Q 1006.39 159.25 994.73 168.18
  Q 993.59 169.06 993.20 170.16
  Z"
/>
<path fill="#3b2c8c" d="
  M 1437.97 264.02
  C 1428.04 257.27 1419.35 247.81 1414.53 236.99
  C 1409.74 226.26 1409.89 215.99 1409.87 201.53
  Q 1409.81 156.89 1409.91 144.75
  C 1409.95 139.61 1411.32 134.06 1412.63 128.83
  C 1415.44 117.65 1421.11 107.74 1429.94 100.26
  C 1436.18 94.98 1442.06 90.10 1450.00 87.53
  Q 1462.06 83.63 1474.75 83.72
  Q 1511.49 83.98 1548.23 83.97
  C 1567.73 83.97 1582.61 86.99 1597.66 99.43
  C 1618.17 116.38 1622.68 141.61 1615.80 165.77
  C 1610.14 185.62 1592.85 203.12 1572.50 208.01
  Q 1565.89 209.60 1555.75 209.75
  Q 1515.16 210.37 1475.04 209.99
  A 1.49 1.49 0.0 0 1 1473.57 208.50
  L 1473.53 168.25
  A 1.03 1.03 0.0 0 1 1474.56 167.22
  Q 1514.15 167.26 1553.00 167.20
  C 1566.30 167.17 1574.64 161.42 1575.94 147.74
  C 1576.78 138.89 1571.51 131.30 1563.38 128.23
  Q 1560.32 127.08 1554.11 126.98
  C 1529.92 126.61 1505.72 126.85 1481.52 126.88
  Q 1469.73 126.90 1467.05 127.63
  C 1459.87 129.57 1453.43 136.32 1453.12 144.26
  C 1452.27 165.86 1452.87 187.65 1452.74 209.28
  Q 1452.64 225.28 1465.54 229.79
  Q 1469.68 231.24 1478.64 231.25
  Q 1516.71 231.29 1554.59 231.37
  Q 1555.28 231.37 1555.28 232.07
  L 1555.24 273.03
  Q 1555.23 274.09 1554.18 274.10
  Q 1515.10 274.39 1475.50 274.22
  C 1463.19 274.16 1448.35 271.07 1437.97 264.02
  Z"
/>
<path fill="#3b2c8c" d="
  M 1787.63 83.97
  C 1803.24 83.97 1817.50 87.13 1830.28 96.51
  C 1835.95 100.68 1841.25 104.46 1845.35 110.97
  C 1856.69 128.93 1856.84 152.18 1850.20 171.75
  C 1848.39 177.12 1844.89 182.97 1841.05 187.47
  Q 1822.14 209.69 1791.74 209.97
  Q 1751.93 210.35 1711.87 209.98
  Q 1709.72 209.96 1709.71 207.80
  L 1709.61 168.72
  A 1.49 1.49 0.0 0 1 1711.09 167.23
  Q 1750.52 167.14 1788.75 167.37
  C 1798.72 167.42 1807.36 164.93 1810.88 154.73
  C 1813.51 147.08 1813.03 136.38 1805.83 131.06
  Q 1800.43 127.06 1794.75 126.94
  Q 1774.65 126.52 1709.75 126.93
  Q 1702.02 126.98 1696.98 130.88
  C 1694.94 132.46 1693.62 134.79 1692.01 137.06
  C 1690.19 139.63 1689.52 144.94 1689.50 147.50
  Q 1689.17 198.26 1689.52 213.25
  Q 1689.56 215.10 1690.66 218.43
  C 1693.42 226.81 1701.63 231.25 1710.25 231.25
  Q 1749.98 231.27 1791.02 231.34
  Q 1791.88 231.35 1791.88 232.21
  L 1791.87 272.84
  Q 1791.87 274.18 1790.53 274.18
  Q 1754.72 274.32 1718.75 274.23
  C 1705.64 274.20 1695.25 273.26 1684.23 269.08
  C 1672.94 264.80 1665.44 258.20 1658.46 248.98
  C 1650.28 238.17 1646.87 226.29 1646.84 212.50
  Q 1646.77 179.25 1646.78 146.00
  Q 1646.78 135.68 1651.44 122.20
  Q 1656.45 107.71 1669.54 97.26
  C 1682.98 86.53 1697.05 83.76 1714.00 83.83
  Q 1750.81 83.98 1787.63 83.97
  Z"
/>
<path fill="#3b2c8c" d="
  M 1892.90 116.94
  C 1896.04 110.58 1899.90 105.39 1905.59 100.81
  Q 1914.86 93.35 1924.75 89.05
  Q 1937.50 83.51 1952.75 83.63
  Q 2001.75 83.99 2050.75 83.93
  C 2053.12 83.92 2053.48 84.54 2053.58 86.85
  Q 2054.47 107.24 2053.46 127.29
  A 1.76 1.76 0.0 0 1 2051.72 128.96
  Q 2009.00 129.37 1966.50 129.14
  C 1957.94 129.10 1940.75 127.45 1935.11 134.93
  C 1932.42 138.47 1930.81 140.99 1930.80 145.37
  Q 1930.71 209.07 1930.81 273.15
  A 1.12 1.11 -89.7 0 1 1929.69 274.27
  L 1887.13 274.09
  A 1.63 1.62 -86.3 0 1 1885.52 272.25
  Q 1885.65 271.23 1885.66 269.75
  Q 1886.12 210.05 1886.16 150.36
  C 1886.17 142.12 1886.69 134.09 1888.60 127.11
  Q 1889.53 123.72 1892.90 116.94
  Z"
/>
<path fill="#64b6fa" d="
  M 438.17 268.34
  C 429.92 264.90 425.42 261.13 419.73 255.78
  Q 400.71 237.92 400.82 211.50
  Q 400.92 185.13 401.00 158.76
  Q 401.06 141.48 401.36 138.77
  C 402.94 124.49 409.66 109.58 421.35 100.63
  C 428.64 95.04 434.31 90.36 443.64 87.98
  C 451.37 86.02 458.05 84.08 466.75 84.07
  Q 507.25 84.02 547.75 84.14
  C 557.99 84.17 570.44 86.38 579.25 91.80
  C 585.03 95.36 590.94 99.51 595.34 104.42
  C 605.96 116.25 611.39 132.15 611.35 148.25
  Q 611.26 178.88 611.28 209.50
  C 611.28 213.61 611.02 220.23 610.21 224.79
  C 606.79 244.13 595.06 257.18 577.60 266.69
  C 568.85 271.46 556.87 274.01 547.50 274.01
  Q 512.75 274.01 478.00 274.00
  Q 464.00 274.00 458.03 273.29
  Q 446.88 271.97 438.17 268.34
  Z
  M 566.93 145.83
  A 16.84 16.84 0.0 0 0 550.09 128.99
  L 462.29 128.99
  A 16.84 16.84 0.0 0 0 445.45 145.83
  L 445.45 212.11
  A 16.84 16.84 0.0 0 0 462.29 228.95
  L 550.09 228.95
  A 16.84 16.84 0.0 0 0 566.93 212.11
  L 566.93 145.83
  Z"
/>
<path fill="#64b6fa" d="
  M 689.94 269.58
  C 681.77 266.93 671.84 260.43 665.40 253.18
  C 663.75 251.31 661.83 249.72 660.44 247.73
  Q 655.61 240.84 654.79 238.65
  Q 650.12 226.27 649.86 214.25
  Q 649.25 185.67 649.93 148.68
  C 650.25 131.03 654.89 112.90 669.55 100.25
  C 681.85 89.64 697.71 84.26 714.00 84.19
  Q 770.75 83.94 827.50 84.41
  Q 831.49 84.45 835.68 84.80
  A 1.60 1.59 -87.8 0 1 837.14 86.38
  Q 837.15 96.86 837.27 107.53
  C 837.33 113.86 836.52 120.76 836.47 127.40
  A 1.03 1.03 0.0 0 1 835.48 128.43
  Q 825.70 128.86 816.00 128.89
  Q 765.75 129.08 715.50 128.85
  C 710.55 128.82 701.73 129.92 698.91 133.65
  C 697.32 135.75 695.31 137.60 694.70 140.16
  Q 693.82 143.80 693.80 148.25
  Q 693.69 179.37 693.83 210.50
  C 693.88 223.21 701.49 229.04 713.58 229.02
  Q 764.79 228.93 816.00 229.08
  Q 825.66 229.10 835.43 230.27
  A 1.42 1.42 0.0 0 1 836.68 231.58
  Q 837.84 248.66 836.83 266.03
  C 836.72 268.00 836.94 269.96 837.02 271.91
  A 1.48 1.47 87.2 0 1 835.63 273.45
  Q 827.90 273.89 820.75 273.91
  Q 737.55 274.13 715.00 273.95
  Q 703.06 273.85 689.94 269.58
  Z"
/>
</svg>
