<?xml version="1.0" encoding="UTF-8" standalone="no"?>
<!DOCTYPE svg PUBLIC "-//W3C//DTD SVG 1.1//EN" "http://www.w3.org/Graphics/SVG/1.1/DTD/svg11.dtd">
<svg xmlns="http://www.w3.org/2000/svg" version="1.1" viewBox="0.00 0.00 676.00 780.00">
<path fill="#3b2c88" d="
  M 0.00 0.00
  L 372.26 0.00
  Q 380.67 0.19 386.75 1.22
  C 402.41 3.88 418.63 7.74 434.21 13.21
  C 444.18 16.71 454.69 19.82 464.12 24.63
  C 478.44 31.93 493.37 40.10 505.83 50.30
  C 509.99 53.71 515.68 57.20 520.17 61.34
  C 528.59 69.11 536.78 76.60 543.73 85.79
  C 546.98 90.08 550.69 94.16 553.86 98.62
  C 565.74 115.31 575.57 133.30 580.29 153.25
  Q 593.94 210.83 571.10 264.82
  C 568.72 270.44 565.03 276.08 562.02 281.58
  Q 560.46 284.44 560.60 281.19
  C 560.65 279.87 560.75 278.46 560.47 276.97
  C 559.45 271.66 558.80 265.74 557.71 261.05
  C 555.49 251.60 552.22 241.86 547.14 233.54
  C 544.22 228.74 541.39 223.20 538.52 219.29
  Q 532.44 211.01 524.74 204.26
  C 518.81 199.07 510.50 193.98 503.31 189.11
  C 498.19 185.64 491.36 182.43 485.85 180.13
  C 473.34 174.91 461.01 170.45 447.36 167.68
  Q 433.74 164.91 429.49 164.32
  Q 406.11 161.08 374.00 160.99
  Q 279.50 160.74 184.98 160.71
  Q 183.21 160.71 183.21 162.48
  L 183.23 393.35
  A 0.86 0.85 -89.3 0 1 182.36 394.21
  Q 169.39 394.00 156.25 394.02
  Q 79.78 394.16 3.31 394.25
  C 2.63 394.25 1.86 394.50 1.10 394.52
  Q 0.61 394.54 0.50 394.07
  L 0.00 391.88
  L 0.00 0.00
  Z"
/>
<path fill="#3b2c88" d="
  M 424.68 321.93
  C 414.79 335.77 394.80 338.05 378.75 338.23
  Q 346.25 338.59 314.08 338.50
  A 1.07 1.07 0.0 0 1 313.01 337.43
  L 312.99 267.78
  A 0.83 0.83 0.0 0 1 313.81 266.95
  Q 346.58 266.68 379.50 266.96
  Q 393.06 267.07 408.68 271.62
  Q 423.62 275.98 428.49 289.48
  C 432.12 299.53 430.98 313.13 424.68 321.93
  Z"
/>
<path fill="#63b4f9" d="
  M 655.72 780.00
  L 203.50 780.00
  L 200.43 779.45
  Q 199.91 779.36 199.90 778.84
  C 198.46 730.65 199.28 682.21 199.74 634.00
  Q 199.77 630.65 199.73 627.59
  A 0.83 0.83 0.0 0 1 200.61 626.74
  C 207.81 627.12 217.02 626.72 222.12 626.72
  Q 302.06 626.76 382.00 626.71
  Q 389.85 626.70 407.53 625.50
  C 435.13 623.61 461.30 617.53 486.70 606.53
  Q 489.29 605.41 494.93 602.42
  C 498.59 600.47 502.47 598.94 505.85 596.84
  C 517.97 589.27 531.69 579.33 539.44 569.94
  C 544.21 564.15 549.41 558.11 553.22 552.15
  Q 564.03 535.23 568.76 515.81
  C 572.14 501.94 572.28 486.70 571.21 472.25
  C 570.36 460.73 567.20 450.41 562.42 439.15
  Q 556.69 425.66 546.56 415.22
  C 543.03 411.58 540.61 407.09 536.84 403.90
  Q 532.01 399.82 526.92 396.07
  Q 526.56 395.80 526.52 395.74
  Q 526.12 395.05 526.92 395.10
  Q 532.37 395.44 538.00 395.42
  Q 603.76 395.23 669.79 395.48
  A 1.54 1.53 -89.8 0 1 671.32 397.03
  Q 671.22 408.27 671.22 419.75
  Q 671.31 581.88 671.56 744.00
  Q 671.57 754.00 671.20 764.00
  Q 671.16 765.04 670.75 765.99
  Q 666.01 777.01 655.72 780.00
  Z"
/>
<path fill="#63b4f9" d="
  M 313.41 519.39
  L 313.35 447.00
  A 0.95 0.89 0.0 0 1 314.30 446.11
  Q 350.91 445.95 387.75 445.94
  C 400.31 445.94 412.55 447.21 424.04 451.95
  C 439.58 458.38 443.95 480.29 437.60 495.53
  C 433.82 504.60 427.63 511.06 418.12 514.58
  C 405.68 519.18 393.65 520.06 380.25 520.09
  Q 347.05 520.16 314.09 520.07
  A 0.68 0.68 0.0 0 1 313.41 519.39
  Z"
/>
</svg>
